<svg width="24" height="24" viewBox="0 0 24 24" fill="none" xmlns="http://www.w3.org/2000/svg">
<g id="add-friend 1">
<path id="Vector" d="M13.1572 13.328H7.81715C6.27151 13.3298 4.7897 13.9447 3.69677 15.0376C2.60383 16.1305 1.989 17.6123 1.98715 19.158V20.938C1.98715 21.0706 2.03983 21.1978 2.1336 21.2915C2.22737 21.3853 2.35454 21.438 2.48715 21.438H18.4872C18.6198 21.438 18.7469 21.3853 18.8407 21.2915C18.9345 21.1978 18.9872 21.0706 18.9872 20.938V19.158C18.9856 17.6122 18.3708 16.1303 17.2778 15.0373C16.1848 13.9443 14.7029 13.3296 13.1572 13.328Z" fill="white"/>
<path id="Vector_2" d="M10.487 11.438C12.9723 11.438 14.987 9.42333 14.987 6.93805C14.987 4.45277 12.9723 2.43805 10.487 2.43805C8.00172 2.43805 5.987 4.45277 5.987 6.93805C5.987 9.42333 8.00172 11.438 10.487 11.438Z" fill="white"/>
<path id="Vector_3" d="M21 10H19.5V8.5C19.5 8.23478 19.3946 7.98043 19.2071 7.79289C19.0196 7.60536 18.7652 7.5 18.5 7.5C18.2348 7.5 17.9804 7.60536 17.7929 7.79289C17.6054 7.98043 17.5 8.23478 17.5 8.5V10H16C15.7348 10 15.4804 10.1054 15.2929 10.2929C15.1054 10.4804 15 10.7348 15 11C15 11.2652 15.1054 11.5196 15.2929 11.7071C15.4804 11.8946 15.7348 12 16 12H17.5V13.5C17.5 13.7652 17.6054 14.0196 17.7929 14.2071C17.9804 14.3946 18.2348 14.5 18.5 14.5C18.7652 14.5 19.0196 14.3946 19.2071 14.2071C19.3946 14.0196 19.5 13.7652 19.5 13.5V12H21C21.2652 12 21.5196 11.8946 21.7071 11.7071C21.8946 11.5196 22 11.2652 22 11C22 10.7348 21.8946 10.4804 21.7071 10.2929C21.5196 10.1054 21.2652 10 21 10Z" fill="white"/>
</g>
</svg>
