<svg width="28" height="28" viewBox="0 0 28 28" fill="none" xmlns="http://www.w3.org/2000/svg">
<path d="M25.4707 19.1862L23.3333 15.9802V11.6667C23.3333 9.19135 22.35 6.81738 20.5997 5.06704C18.8493 3.3167 16.4753 2.33337 14 2.33337C11.5246 2.33337 9.15066 3.3167 7.40033 5.06704C5.64999 6.81738 4.66666 9.19135 4.66666 11.6667V15.9802L2.52932 19.1862C2.41256 19.362 2.34562 19.5661 2.33561 19.7769C2.32559 19.9877 2.37288 20.1972 2.47245 20.3833C2.57201 20.5693 2.72013 20.7249 2.90106 20.8335C3.08199 20.9421 3.28897 20.9997 3.49999 21H24.5C24.711 20.9997 24.918 20.9421 25.0989 20.8335C25.2798 20.7249 25.428 20.5693 25.5275 20.3833C25.6271 20.1972 25.6744 19.9877 25.6644 19.7769C25.6544 19.5661 25.5874 19.362 25.4707 19.1862Z" fill="#7879F1"/>
<path d="M14 25.6666C15.0344 25.6675 16.0397 25.324 16.8572 24.6903C17.6748 24.0565 18.258 23.1686 18.515 22.1666H9.485C9.74197 23.1686 10.3252 24.0565 11.1428 24.6903C11.9603 25.324 12.9656 25.6675 14 25.6666Z" fill="#7879F1"/>
</svg>
