<svg width="28" height="28" viewBox="0 0 28 28" fill="none" xmlns="http://www.w3.org/2000/svg">
<path d="M22.167 5.83359H21.0003V3.50025C21.0003 3.19084 20.8774 2.89409 20.6586 2.6753C20.4398 2.4565 20.143 2.33359 19.8336 2.33359C19.5242 2.33359 19.2275 2.4565 19.0087 2.6753C18.7899 2.89409 18.667 3.19084 18.667 3.50025V5.83359H9.33362V3.50025C9.33362 3.19084 9.2107 2.89409 8.99191 2.6753C8.77312 2.4565 8.47637 2.33359 8.16695 2.33359C7.85753 2.33359 7.56079 2.4565 7.34199 2.6753C7.1232 2.89409 7.00028 3.19084 7.00028 3.50025V5.83359H5.83362C4.90536 5.83359 4.01512 6.20234 3.35874 6.85871C2.70237 7.51509 2.33362 8.40533 2.33362 9.33359V10.5003H25.667V9.33359C25.667 8.40533 25.2982 7.51509 24.6418 6.85871C23.9854 6.20234 23.0952 5.83359 22.167 5.83359Z" fill="#7879F1"/>
<path d="M2.33362 22.1669C2.33362 23.0952 2.70237 23.9854 3.35874 24.6418C4.01512 25.2982 4.90536 25.6669 5.83362 25.6669H22.167C23.0952 25.6669 23.9854 25.2982 24.6418 24.6418C25.2982 23.9854 25.667 23.0952 25.667 22.1669V12.8336H2.33362V22.1669Z" fill="#7879F1"/>
</svg>
