<svg width="24" height="24" viewBox="0 0 24 24" fill="none" xmlns="http://www.w3.org/2000/svg">
<g id="chat (1) 1">
<path id="Vector" d="M18 0.999939H5.99995C4.67436 1.00153 3.40351 1.52882 2.46617 2.46616C1.52884 3.4035 1.00154 4.67434 0.999954 5.99994V13.9999C1.00141 15.1521 1.40004 16.2686 2.12867 17.1612C2.8573 18.0538 3.87137 18.6678 4.99995 18.8999V21.9999C4.99993 22.181 5.04905 22.3586 5.14208 22.5139C5.23511 22.6693 5.36856 22.7964 5.52819 22.8818C5.68782 22.9672 5.86764 23.0077 6.04847 22.9989C6.2293 22.9901 6.40435 22.9324 6.55495 22.8319L12.3 18.9999H18C19.3256 18.9984 20.5964 18.4711 21.5337 17.5337C22.4711 16.5964 22.9984 15.3255 23 13.9999V5.99994C22.9984 4.67434 22.4711 3.4035 21.5337 2.46616C20.5964 1.52882 19.3256 1.00153 18 0.999939ZM16 12.9999H7.99995C7.73474 12.9999 7.48038 12.8946 7.29285 12.707C7.10531 12.5195 6.99995 12.2652 6.99995 11.9999C6.99995 11.7347 7.10531 11.4804 7.29285 11.2928C7.48038 11.1053 7.73474 10.9999 7.99995 10.9999H16C16.2652 10.9999 16.5195 11.1053 16.7071 11.2928C16.8946 11.4804 17 11.7347 17 11.9999C17 12.2652 16.8946 12.5195 16.7071 12.707C16.5195 12.8946 16.2652 12.9999 16 12.9999ZM18 8.99994H5.99995C5.73474 8.99994 5.48038 8.89458 5.29285 8.70705C5.10531 8.51951 4.99995 8.26516 4.99995 7.99994C4.99995 7.73472 5.10531 7.48037 5.29285 7.29283C5.48038 7.1053 5.73474 6.99994 5.99995 6.99994H18C18.2652 6.99994 18.5195 7.1053 18.7071 7.29283C18.8946 7.48037 19 7.73472 19 7.99994C19 8.26516 18.8946 8.51951 18.7071 8.70705C18.5195 8.89458 18.2652 8.99994 18 8.99994Z" fill="white"/>
</g>
</svg>
