<svg width="28" height="28" viewBox="0 0 28 28" fill="none" xmlns="http://www.w3.org/2000/svg">
<path d="M23.3334 9.33329V16.3333C23.3313 18.1892 22.5932 19.9685 21.2808 21.2808C19.9685 22.5931 18.1892 23.3313 16.3334 23.3333H9.33335C9.02393 23.3333 8.72719 23.4562 8.5084 23.675C8.2896 23.8938 8.16669 24.1905 8.16669 24.5C8.16669 24.8094 8.2896 25.1061 8.5084 25.3249C8.72719 25.5437 9.02393 25.6666 9.33335 25.6666H16.3334C18.8078 25.6638 21.1802 24.6795 22.9299 22.9298C24.6796 21.1801 25.6638 18.8078 25.6667 16.3333V9.33329C25.6667 9.02387 25.5438 8.72713 25.325 8.50833C25.1062 8.28954 24.8094 8.16663 24.5 8.16663C24.1906 8.16663 23.8939 8.28954 23.6751 8.50833C23.4563 8.72713 23.3334 9.02387 23.3334 9.33329Z" fill="#7879F1"/>
<path d="M16.3333 22.1667C17.8799 22.1649 19.3626 21.5497 20.4561 20.4562C21.5497 19.3626 22.1649 17.8799 22.1667 16.3334V8.16671C22.1649 6.62017 21.5497 5.1375 20.4561 4.04393C19.3626 2.95036 17.8799 2.3352 16.3333 2.33337H8.16668C6.62014 2.3352 5.13747 2.95036 4.0439 4.04393C2.95033 5.1375 2.33517 6.62017 2.33334 8.16671V16.3334C2.33517 17.8799 2.95033 19.3626 4.0439 20.4562C5.13747 21.5497 6.62014 22.1649 8.16668 22.1667H16.3333ZM9.11168 10.9832L10.603 13.0454L15.5408 8.47669C15.7681 8.26653 16.0695 8.15525 16.3788 8.16733C16.6881 8.17941 16.9799 8.31385 17.19 8.54109C17.4002 8.76833 17.5115 9.06974 17.4994 9.37903C17.4873 9.68831 17.3529 9.98013 17.1256 10.1903L11.2218 15.652C11.1007 15.7641 10.9571 15.8491 10.8006 15.9016C10.6442 15.954 10.4783 15.9727 10.3141 15.9563C10.1499 15.94 9.99103 15.889 9.84799 15.8067C9.70495 15.7244 9.58099 15.6127 9.48431 15.4789L7.22168 12.3503C7.04949 12.0993 6.98221 11.7909 7.0342 11.491C7.08619 11.1911 7.25333 10.9234 7.49996 10.745C7.74658 10.5666 8.05317 10.4916 8.35428 10.5361C8.65539 10.5806 8.92719 10.7411 9.11168 10.9832Z" fill="#7879F1"/>
</svg>
