<svg width="18" height="19" viewBox="0 0 18 19" fill="none" xmlns="http://www.w3.org/2000/svg">
<g id="clock (1) 1" clip-path="url(#clip0_1_305)">
<path id="Vector" d="M9.33369 2.27402C7.88889 2.14679 6.4388 2.45085 5.1668 3.14776C3.89481 3.84466 2.85803 4.9031 2.18759 6.18924C1.51714 7.47538 1.24313 8.93144 1.40021 10.3733C1.5573 11.8152 2.13842 13.1781 3.07008 14.2897C4.00175 15.4013 5.24212 16.2116 6.63434 16.6183C8.02657 17.0249 9.50811 17.0096 10.8916 16.5743C12.2751 16.1389 13.4985 15.3031 14.407 14.1724C15.3154 13.0418 15.8682 11.6672 15.9955 10.2224C16.1637 8.28544 15.5569 6.36086 14.308 4.87079C13.0591 3.38073 11.2702 2.44685 9.33369 2.27402ZM8.16409 15.556C6.98198 15.4519 5.85728 14.9996 4.93222 14.2563C4.00716 13.513 3.32329 12.512 2.96709 11.3801C2.61089 10.2481 2.59835 9.03594 2.93106 7.89685C3.26378 6.75775 3.9268 5.74291 4.83629 4.98063C5.74578 4.21836 6.86088 3.7429 8.04059 3.61438C9.2203 3.48585 10.4116 3.71004 11.4639 4.25859C12.5162 4.80714 13.3822 5.65541 13.9524 6.69613C14.5226 7.73686 14.7714 8.92329 14.6673 10.1054C14.5258 11.6898 13.7617 13.1534 12.5426 14.1752C11.3235 15.197 9.74883 15.6936 8.16409 15.556Z" fill="#A5A5A5"/>
<path id="Vector_2" d="M9.37879 9.36271L9.70546 5.65307C9.72097 5.47694 9.66588 5.30186 9.5523 5.16635C9.43873 5.03084 9.27597 4.946 9.09984 4.93049C8.92371 4.91498 8.74864 4.97007 8.61313 5.08365C8.47762 5.19722 8.39278 5.35998 8.37727 5.53611L8.02638 9.52068C8.01091 9.6968 8.06603 9.87185 8.17962 10.0073L9.99647 12.1751C10.1111 12.3071 10.2729 12.3888 10.4472 12.4026C10.6214 12.4164 10.7942 12.3612 10.9281 12.2489C11.0621 12.1367 11.1466 11.9762 11.1635 11.8023C11.1803 11.6283 11.1281 11.4546 11.0182 11.3187L9.37879 9.36271Z" fill="#A5A5A5"/>
</g>
<defs>
<clipPath id="clip0_1_305">
<rect width="16" height="16" fill="white" transform="translate(1.42304 0.908203) rotate(5.03246)"/>
</clipPath>
</defs>
</svg>
