<svg width="28" height="28" viewBox="0 0 28 28" fill="none" xmlns="http://www.w3.org/2000/svg">
<g clip-path="url(#clip0_1_510)">
<path d="M21 10.9375C21.0001 9.9472 20.8548 8.96224 20.5686 8.01415C20.1624 6.66553 19.4775 5.41722 18.5584 4.34998C17.6393 3.28273 16.5063 2.42034 15.2329 1.81858C13.9594 1.21682 12.5738 0.88911 11.1657 0.856647C9.7576 0.824183 8.35837 1.08769 7.05853 1.63012C5.75869 2.17255 4.5872 2.98182 3.61986 4.00557C2.65252 5.02932 1.91088 6.24475 1.44291 7.57321C0.974947 8.90168 0.791084 10.3136 0.903219 11.7176C1.01535 13.1216 1.42099 14.4864 2.09388 15.7238L0.908258 19.8853C0.871159 20.0155 0.864785 20.1525 0.889639 20.2856C0.914492 20.4187 0.969894 20.5442 1.05149 20.6523C1.13308 20.7604 1.23863 20.848 1.35984 20.9083C1.48105 20.9687 1.61461 21.0001 1.75001 21C1.83106 20.9998 1.91172 20.9887 1.98976 20.9668L6.15213 19.7803C6.7427 20.1039 7.36561 20.3646 8.01063 20.5582C8.95856 20.8515 9.94524 21.0004 10.9375 21C13.6053 20.997 16.163 19.9359 18.0494 18.0495C19.9359 16.163 20.997 13.6053 21 10.9375Z" fill="#7879F1"/>
<path d="M27.0918 26.0102L25.9062 21.8487C27.1171 19.62 27.4401 17.0157 26.8104 14.5586C26.1807 12.1016 24.6448 9.97365 22.5111 8.60211C22.8617 10.3169 22.826 12.0883 22.4065 13.7876C21.9871 15.4869 21.1944 17.0715 20.0862 18.4262C18.9779 19.7809 17.5819 20.8719 15.9994 21.6198C14.417 22.3677 12.6878 22.7537 10.9375 22.75C10.1576 22.7476 9.37995 22.667 8.61615 22.5094C9.53101 23.9186 10.7819 25.0783 12.2563 25.884C13.7307 26.6897 15.3824 27.1162 17.0625 27.125C18.7348 27.1252 20.3803 26.7062 21.8488 25.9061L26.0103 27.0917C26.0883 27.1136 26.169 27.1248 26.25 27.125C26.3854 27.125 26.519 27.0936 26.6402 27.0333C26.7614 26.973 26.867 26.8853 26.9485 26.7773C27.0301 26.6692 27.0855 26.5437 27.1104 26.4106C27.1352 26.2775 27.1289 26.1405 27.0918 26.0102Z" fill="#7879F1"/>
</g>
<defs>
<clipPath id="clip0_1_510">
<rect width="28" height="28" fill="white"/>
</clipPath>
</defs>
</svg>
