<svg width="28" height="28" viewBox="0 0 28 28" fill="none" xmlns="http://www.w3.org/2000/svg">
<path d="M14 2.33334C11.7518 2.3334 9.55158 2.98301 7.66391 4.20402C5.77623 5.42504 4.28154 7.16545 3.35965 9.21589C2.43775 11.2663 2.12792 13.5395 2.46742 15.7618C2.80692 17.9842 3.7813 20.0611 5.27333 21.7428C5.38236 21.8655 5.51603 21.9638 5.66561 22.0313C5.81519 22.0988 5.97733 22.1341 6.14144 22.1347C16.1002 22.1748 11.63 22.1662 21.83 22.1632C21.994 22.1633 22.1563 22.1287 22.3061 22.0618C22.4559 21.9948 22.5899 21.897 22.6992 21.7747C24.1999 20.0957 25.1826 18.0183 25.5287 15.7932C25.8748 13.5681 25.5696 11.2904 24.6498 9.23491C23.7301 7.17944 22.2351 5.43407 20.3454 4.20943C18.4556 2.98479 16.2519 2.33322 14 2.33334ZM19.3559 11.441L17.3166 12.9344C17.4333 13.2777 17.4952 13.6374 17.5 14C17.5032 14.7827 17.2451 15.5441 16.7666 16.1634C16.2881 16.7828 15.6165 17.2247 14.8583 17.419C14.1001 17.6134 13.2988 17.5492 12.5813 17.2365C11.8638 16.9238 11.2712 16.3805 10.8974 15.6928C10.5237 15.0051 10.3902 14.2124 10.5181 13.4402C10.646 12.668 11.028 11.9607 11.6035 11.4302C12.1791 10.8998 12.9152 10.5766 13.6952 10.512C14.4752 10.4474 15.2545 10.6449 15.9095 11.0734L17.9774 9.55886C18.2273 9.38209 18.5366 9.3106 18.8387 9.35981C19.1409 9.40903 19.4115 9.575 19.5924 9.82194C19.7732 10.0689 19.8498 10.377 19.8056 10.6799C19.7614 10.9828 19.5999 11.2561 19.3559 11.441Z" fill="#464366"/>
<path d="M14 15.1667C14.6443 15.1667 15.1667 14.6444 15.1667 14C15.1667 13.3557 14.6443 12.8333 14 12.8333C13.3556 12.8333 12.8333 13.3557 12.8333 14C12.8333 14.6444 13.3556 15.1667 14 15.1667Z" fill="#464366"/>
</svg>
