<svg width="28" height="28" viewBox="0 0 28 28" fill="none" xmlns="http://www.w3.org/2000/svg">
<path d="M13.9999 13.8376L25.3829 7.62872C25.0209 6.4376 24.2865 5.39389 23.2877 4.65081C22.2889 3.90772 21.0782 3.50438 19.8333 3.5H8.1666C6.92169 3.50438 5.71097 3.90772 4.71215 4.65081C3.71333 5.39389 2.97902 6.4376 2.617 7.62872L13.9999 13.8376Z" fill="#464366"/>
<path d="M14.5589 16.1909C14.3874 16.2843 14.1953 16.3333 14 16.3333C13.8048 16.3333 13.6126 16.2843 13.4412 16.1909L2.33337 10.132V18.6667C2.3352 20.2132 2.95036 21.6959 4.04393 22.7894C5.1375 23.883 6.62017 24.4982 8.16671 24.5H19.8334C21.3799 24.4982 22.8626 23.883 23.9562 22.7894C25.0497 21.6959 25.6649 20.2132 25.6667 18.6667V10.132L14.5589 16.1909Z" fill="#464366"/>
</svg>
