<svg width="28" height="28" viewBox="0 0 28 28" fill="none" xmlns="http://www.w3.org/2000/svg">
<path d="M22.1666 1.16667H5.83329C5.55373 1.16989 5.28462 1.27339 5.07496 1.45834C5.90695 1.75106 6.63896 2.27356 7.18615 2.96528C7.73334 3.65701 8.07329 4.48964 8.16663 5.36667C8.18446 5.52172 8.18446 5.67829 8.16663 5.83334V25.6667C8.16607 25.8898 8.22953 26.1084 8.34946 26.2966C8.4694 26.4848 8.64078 26.6346 8.84329 26.7283C9.04628 26.8218 9.27183 26.855 9.49313 26.8239C9.71443 26.7929 9.92216 26.699 10.0916 26.5533L13.4166 23.7067L16.7416 26.5533C16.9529 26.7341 17.2219 26.8334 17.5 26.8334C17.778 26.8334 18.047 26.7341 18.2583 26.5533L21.5833 23.7067L24.9083 26.5533C25.1196 26.7341 25.3886 26.8334 25.6666 26.8333C25.8354 26.8321 26.0022 26.7964 26.1566 26.7283C26.3591 26.6346 26.5305 26.4848 26.6505 26.2966C26.7704 26.1084 26.8338 25.8898 26.8333 25.6667V5.83334C26.8333 4.59566 26.3416 3.40868 25.4665 2.53351C24.5913 1.65834 23.4043 1.16667 22.1666 1.16667ZM21 17.5H14C13.6905 17.5 13.3938 17.3771 13.175 17.1583C12.9562 16.9395 12.8333 16.6428 12.8333 16.3333C12.8333 16.0239 12.9562 15.7272 13.175 15.5084C13.3938 15.2896 13.6905 15.1667 14 15.1667H21C21.3094 15.1667 21.6061 15.2896 21.8249 15.5084C22.0437 15.7272 22.1666 16.0239 22.1666 16.3333C22.1666 16.6428 22.0437 16.9395 21.8249 17.1583C21.6061 17.3771 21.3094 17.5 21 17.5ZM21 12.8333H14C13.6905 12.8333 13.3938 12.7104 13.175 12.4916C12.9562 12.2728 12.8333 11.9761 12.8333 11.6667C12.8333 11.3573 12.9562 11.0605 13.175 10.8417C13.3938 10.6229 13.6905 10.5 14 10.5H21C21.3094 10.5 21.6061 10.6229 21.8249 10.8417C22.0437 11.0605 22.1666 11.3573 22.1666 11.6667C22.1666 11.9761 22.0437 12.2728 21.8249 12.4916C21.6061 12.7104 21.3094 12.8333 21 12.8333ZM21 8.16667H14C13.6905 8.16667 13.3938 8.04376 13.175 7.82496C12.9562 7.60617 12.8333 7.30942 12.8333 7.00001C12.8333 6.69059 12.9562 6.39384 13.175 6.17505C13.3938 5.95626 13.6905 5.83334 14 5.83334H21C21.3094 5.83334 21.6061 5.95626 21.8249 6.17505C22.0437 6.39384 22.1666 6.69059 22.1666 7.00001C22.1666 7.30942 22.0437 7.60617 21.8249 7.82496C21.6061 8.04376 21.3094 8.16667 21 8.16667ZM5.83329 5.83334V15.1667H2.33329C2.02387 15.1667 1.72713 15.0438 1.50833 14.825C1.28954 14.6062 1.16663 14.3094 1.16663 14V5.83334C1.16663 5.67001 1.16663 5.51834 1.16663 5.36667C1.22851 4.74783 1.53369 4.17892 2.01504 3.7851C2.49638 3.39127 3.11445 3.20479 3.73329 3.26667C4.35213 3.32856 4.92104 3.63374 5.31487 4.11508C5.70869 4.59642 5.89518 5.2145 5.83329 5.83334Z" fill="#7879F1"/>
</svg>
