<svg width="28" height="28" viewBox="0 0 28 28" fill="none" xmlns="http://www.w3.org/2000/svg">
<path d="M13.3466 6.00833L12.775 4.29333C12.6947 4.06289 12.5451 3.86294 12.3466 3.7209C12.1482 3.57886 11.9107 3.5017 11.6666 3.5H5.83331C4.90589 3.50271 4.01722 3.87233 3.36143 4.52812C2.70564 5.18391 2.33602 6.07258 2.33331 7V9.33333H10.0216L13.3466 6.00833Z" fill="#7879F1"/>
<path d="M22.1666 7H15.6566L11.3283 11.3283C11.1059 11.5433 10.8093 11.6644 10.5 11.6667H2.33331V21C2.33602 21.9274 2.70564 22.8161 3.36143 23.4719C4.01722 24.1277 4.90589 24.4973 5.83331 24.5H22.1666C23.0941 24.4973 23.9827 24.1277 24.6385 23.4719C25.2943 22.8161 25.6639 21.9274 25.6666 21V10.5C25.6639 9.57258 25.2943 8.68391 24.6385 8.02812C23.9827 7.37233 23.0941 7.00271 22.1666 7Z" fill="#7879F1"/>
</svg>
