<svg width="28" height="28" viewBox="0 0 28 28" fill="none" xmlns="http://www.w3.org/2000/svg">
<path d="M25.5588 10.36C25.0482 10.2858 24.5609 10.0975 24.1333 9.80886C23.7056 9.52027 23.3485 9.13892 23.0887 8.69321C22.8288 8.2475 22.6728 7.7489 22.6324 7.23455C22.5919 6.72021 22.668 6.20336 22.855 5.72251C22.9739 5.40814 22.9914 5.06446 22.9051 4.73964C22.8188 4.41482 22.633 4.12516 22.3738 3.91125C21.2293 2.95021 19.9266 2.19524 18.5238 1.68001C18.2043 1.56134 17.8556 1.54651 17.5272 1.63764C17.1989 1.72876 16.9076 1.92119 16.695 2.18751C16.375 2.5967 15.966 2.92765 15.4991 3.15527C15.0321 3.38288 14.5195 3.50117 14 3.50117C13.4806 3.50117 12.9679 3.38288 12.501 3.15527C12.034 2.92765 11.625 2.5967 11.305 2.18751C11.0924 1.92119 10.8012 1.72876 10.4728 1.63764C10.1445 1.54651 9.79571 1.56134 9.47627 1.68001C8.18098 2.15569 6.96991 2.83507 5.88877 3.6925C5.61625 3.90825 5.41995 4.20558 5.32863 4.54095C5.23731 4.87632 5.25575 5.23212 5.38127 5.55625C5.58318 6.04983 5.6666 6.58386 5.62485 7.1155C5.58309 7.64715 5.41731 8.1616 5.14082 8.6176C4.86433 9.07361 4.48481 9.45846 4.03271 9.7413C3.58062 10.0241 3.06853 10.1971 2.53752 10.2463C2.19278 10.2831 1.86898 10.4297 1.61379 10.6644C1.35861 10.8991 1.18552 11.2095 1.12002 11.55C0.957092 12.3565 0.875019 13.1772 0.875019 14C0.873821 14.6888 0.929427 15.3766 1.04127 16.0563C1.09693 16.4076 1.2668 16.7309 1.5246 16.976C1.78241 17.2212 2.11379 17.3746 2.46752 17.4125C3.01019 17.4634 3.53277 17.6436 3.99151 17.9379C4.45026 18.2323 4.83182 18.6322 5.10427 19.1043C5.37672 19.5764 5.53213 20.1069 5.55749 20.6513C5.58284 21.1958 5.47741 21.7384 5.25002 22.2338C5.10121 22.556 5.06429 22.9187 5.14514 23.2642C5.22599 23.6098 5.41996 23.9185 5.69627 24.1413C6.83387 25.0848 8.12402 25.8276 9.51127 26.3375C9.68867 26.3989 9.8748 26.4314 10.0625 26.4338C10.3199 26.4332 10.5734 26.3709 10.8018 26.2522C11.0302 26.1334 11.2267 25.9616 11.375 25.7513C11.6869 25.2969 12.1049 24.9255 12.5929 24.6693C13.0808 24.4131 13.6239 24.2799 14.175 24.2813C14.709 24.2819 15.2354 24.4073 15.7124 24.6473C16.1894 24.8873 16.6038 25.2354 16.9225 25.6638C17.1345 25.9488 17.4349 26.1556 17.7767 26.2522C18.1186 26.3487 18.4827 26.3295 18.8125 26.1975C20.081 25.687 21.2619 24.9814 22.3125 24.1063C22.5764 23.8881 22.7644 23.5918 22.8493 23.26C22.9342 22.9283 22.9117 22.5782 22.785 22.26C22.5792 21.7728 22.4895 21.2444 22.5229 20.7166C22.5563 20.1887 22.712 19.6759 22.9776 19.2185C23.2432 18.7611 23.6114 18.3717 24.0533 18.0811C24.4952 17.7904 24.9986 17.6065 25.5238 17.5438C25.8643 17.4967 26.181 17.3424 26.428 17.1033C26.675 16.8641 26.8394 16.5526 26.8975 16.2138C27.038 15.4839 27.1142 14.7432 27.125 14C27.1252 13.2161 27.052 12.434 26.9063 11.6638C26.8472 11.3324 26.6852 11.0281 26.4433 10.794C26.2014 10.56 25.8919 10.4081 25.5588 10.36ZM18.375 14C18.375 14.8653 18.1184 15.7112 17.6377 16.4306C17.157 17.1501 16.4737 17.7108 15.6743 18.042C14.8748 18.3731 13.9952 18.4598 13.1465 18.2909C12.2978 18.1221 11.5183 17.7055 10.9064 17.0936C10.2946 16.4817 9.87789 15.7022 9.70908 14.8535C9.54027 14.0049 9.62691 13.1252 9.95805 12.3258C10.2892 11.5263 10.8499 10.8431 11.5694 10.3623C12.2889 9.88159 13.1347 9.625 14 9.625C15.1603 9.625 16.2731 10.0859 17.0936 10.9064C17.9141 11.7269 18.375 12.8397 18.375 14Z" fill="#7879F1"/>
</svg>
