<svg width="28" height="28" viewBox="0 0 28 28" fill="none" xmlns="http://www.w3.org/2000/svg">
<g clip-path="url(#clip0_1_545)">
<path d="M19.7969 25.8125H19.2493C19.2494 25.757 19.263 25.8531 19.0602 24.6375C19.047 24.5584 18.9785 24.5 18.8983 24.5H9.1017C9.02152 24.5 8.953 24.5584 8.93982 24.6375C8.73748 25.8504 8.7506 25.7576 8.75066 25.8125H8.20312C7.53867 25.8125 7 26.3512 7 27.0156V27.5625C7 27.8041 7.19589 28 7.4375 28H20.5625C20.8041 28 21 27.8041 21 27.5625V27.0156C21 26.3512 20.4613 25.8125 19.7969 25.8125Z" fill="#464366"/>
<path d="M5.59677 7.40474C5.13986 8.07702 4.42323 8.55854 3.59215 8.70362C3.53921 8.71287 3.5 8.75777 3.5 8.81152V16.625H24.5V8.81152C24.5 8.75777 24.4608 8.71287 24.4079 8.70362C23.5768 8.55848 22.8601 8.07702 22.4032 7.40474C22.3595 7.34048 22.2657 7.34016 22.2222 7.40458C20.9692 9.2598 18.1981 9.17995 17.0567 7.25277C17.016 7.18413 16.9187 7.18025 16.8732 7.24582C15.4845 9.24815 12.5176 9.25181 11.1267 7.24582C11.0813 7.18025 10.9839 7.18413 10.9432 7.25277C9.80306 9.17749 7.03238 9.2627 5.77779 7.40463C5.73431 7.34016 5.64047 7.34048 5.59677 7.40474ZM13.5625 10.0625H22.735C22.968 10.0625 23.1715 10.2384 23.1866 10.4709C23.203 10.7257 23.0012 10.9375 22.75 10.9375H13.5775C13.3445 10.9375 13.141 10.7616 13.1259 10.5291C13.1095 10.2743 13.3113 10.0625 13.5625 10.0625ZM13.5625 12.25H22.735C22.968 12.25 23.1715 12.4259 23.1866 12.6584C23.203 12.9132 23.0012 13.125 22.75 13.125H13.5775C13.3445 13.125 13.141 12.9491 13.1259 12.7166C13.1095 12.4618 13.3113 12.25 13.5625 12.25ZM13.5625 14.4375H19.6725C19.9055 14.4375 20.109 14.6134 20.1241 14.8459C20.1405 15.1007 19.9387 15.3125 19.6875 15.3125H13.5775C13.3445 15.3125 13.141 15.1366 13.1259 14.9041C13.1095 14.6493 13.3113 14.4375 13.5625 14.4375ZM11.3741 12.2789C11.3591 12.5115 11.1557 12.6875 10.9226 12.6875C10.8927 12.6875 10.8672 12.7091 10.8623 12.7386L10.494 14.9472C10.459 15.1577 10.2764 15.3125 10.0626 15.3125H6.56255C6.34873 15.3125 6.16607 15.1577 6.13107 14.9472L5.7628 12.7386C5.75788 12.7091 5.73234 12.6875 5.70248 12.6875C5.46941 12.6875 5.26597 12.5115 5.25104 12.2789C5.23458 12.0241 5.43621 11.8125 5.6875 11.8125H6.57284C6.62304 11.8125 6.66673 11.7784 6.67893 11.7296L7.01313 10.3939C7.07164 10.1593 7.30953 10.0171 7.54359 10.0756C7.7782 10.1341 7.92039 10.3715 7.86187 10.6061L7.59451 11.6766C7.57728 11.7456 7.62945 11.8125 7.7006 11.8125H8.9244C8.99555 11.8125 9.04777 11.7457 9.03049 11.6766L8.76313 10.6061C8.70461 10.3715 8.8468 10.1341 9.08141 10.0756C9.31602 10.0171 9.55336 10.1593 9.61187 10.3939L9.94607 11.7296C9.95827 11.7783 10.002 11.8125 10.0522 11.8125H10.9375C11.1888 11.8125 11.3904 12.0241 11.3741 12.2789Z" fill="#464366"/>
<path d="M7.02592 14.4375H9.59908C9.65256 14.4375 9.69817 14.3988 9.70698 14.3461L9.96253 12.8149C9.97363 12.7482 9.92223 12.6875 9.85463 12.6875H6.77042C6.70283 12.6875 6.65142 12.7482 6.66252 12.8149L6.91808 14.3461C6.92683 14.3988 6.97244 14.4375 7.02592 14.4375Z" fill="#464366"/>
<path d="M25.375 17.0625C25.375 17.3041 25.1791 17.5 24.9375 17.5H3.0625C2.82089 17.5 2.625 17.3041 2.625 17.0625V8.81152C2.625 8.75782 2.58579 8.71292 2.53291 8.70368C1.97427 8.60623 1.46694 8.35658 1.05596 7.9992C0.985141 7.93762 0.875 7.98755 0.875 8.08139V19.0859C0.875 19.1766 0.948445 19.25 1.03906 19.25H26.9609C27.0516 19.25 27.125 19.1766 27.125 19.0859V8.08139C27.125 7.98755 27.0149 7.93762 26.944 7.9992C26.5331 8.35658 26.0257 8.60623 25.4671 8.70368C25.4142 8.71292 25.375 8.75782 25.375 8.81152V17.0625Z" fill="#464366"/>
<path d="M17.5 5.6875C17.5 6.91124 18.5095 7.90316 19.7397 7.8744C20.9341 7.84645 21.875 6.8413 21.875 5.64654V5.41406C21.875 5.32345 21.8016 5.25 21.7109 5.25H17.6641C17.5734 5.25 17.5 5.32345 17.5 5.41406V5.6875Z" fill="#464366"/>
<path d="M21.7644 4.18398L21.0896 0.137102C21.0764 0.0579687 21.0079 0 20.9278 0H17.2785C17.1826 0 17.1071 0.0820313 17.115 0.17768L17.4524 4.22455C17.4595 4.30959 17.5306 4.375 17.616 4.375H21.6026C21.704 4.375 21.7811 4.28395 21.7644 4.18398Z" fill="#464366"/>
<path d="M22.75 5.41406V5.64654C22.75 6.8413 23.6909 7.84645 24.8853 7.8744C26.1155 7.90316 27.125 6.91124 27.125 5.6875V5.41406C27.125 5.32345 27.0516 5.25 26.9609 5.25H22.9141C22.8234 5.25 22.75 5.32345 22.75 5.41406Z" fill="#464366"/>
<path d="M26.7278 4.375C26.8398 4.375 26.9189 4.2653 26.8835 4.15904L25.597 0.299141C25.5374 0.120312 25.3706 0 25.1819 0H22.1474C22.046 0 21.9689 0.0910547 21.9856 0.191023L22.6605 4.2379C22.6736 4.31698 22.7421 4.375 22.8223 4.375H26.7278Z" fill="#464366"/>
<path d="M14 7.875C15.3897 7.875 16.5304 6.78995 16.6194 5.42243C16.6255 5.32875 16.5493 5.25 16.4555 5.25H11.5445C11.4506 5.25 11.3745 5.32875 11.3806 5.42243C11.4697 6.78995 12.6104 7.875 14 7.875Z" fill="#464366"/>
<path d="M16.0716 0H11.9285C11.8431 0 11.772 0.0654062 11.7649 0.150445L11.4275 4.19732C11.4196 4.29297 11.4951 4.375 11.591 4.375H16.4089C16.5049 4.375 16.5804 4.29297 16.5725 4.19732L16.235 0.150445C16.228 0.0654062 16.1569 0 16.0716 0V0Z" fill="#464366"/>
<path d="M10.7215 0H7.07228C6.99211 0 6.92364 0.0579687 6.91046 0.137102L6.23561 4.18398C6.21893 4.284 6.29604 4.375 6.39743 4.375H10.384C10.4694 4.375 10.5404 4.30959 10.5476 4.22455L10.885 0.17768C10.8929 0.0820313 10.8174 0 10.7215 0V0Z" fill="#464366"/>
<path d="M8.36467 7.8744C9.5591 7.84645 10.5 6.8413 10.5 5.64654V5.41406C10.5 5.32345 10.4266 5.25 10.3359 5.25H6.28906C6.19845 5.25 6.125 5.32345 6.125 5.41406V5.6875C6.125 6.91124 7.13453 7.90316 8.36467 7.8744Z" fill="#464366"/>
<path d="M3.11467 7.8744C4.3091 7.84645 5.25 6.8413 5.25 5.64654V5.41406C5.25 5.32345 5.17655 5.25 5.08594 5.25H1.03906C0.948445 5.25 0.875 5.32345 0.875 5.41406V5.6875C0.875 6.91124 1.88453 7.90316 3.11467 7.8744Z" fill="#464366"/>
<path d="M6.01443 0.191023C6.03105 0.0910547 5.95394 0 5.85255 0H2.81805C2.62938 0 2.46258 0.120312 2.40297 0.299141L1.1165 4.15904C1.08112 4.2653 1.1602 4.375 1.27214 4.375H5.17776C5.25793 4.375 5.3264 4.31703 5.33958 4.2379L6.01443 0.191023Z" fill="#464366"/>
<path d="M0.875 21.875C0.875 22.8415 1.65851 23.625 2.625 23.625H25.375C26.3415 23.625 27.125 22.8415 27.125 21.875V20.2891C27.125 20.1984 27.0516 20.125 26.9609 20.125H1.03906C0.948445 20.125 0.875 20.1984 0.875 20.2891V21.875ZM13.5712 21.7895C13.6462 21.4056 14.1526 21.312 14.3636 21.632C14.4979 21.831 14.443 22.1066 14.2428 22.2385C13.9201 22.4563 13.4899 22.1656 13.5712 21.7895Z" fill="#464366"/>
</g>
<defs>
<clipPath id="clip0_1_545">
<rect width="28" height="28" fill="white"/>
</clipPath>
</defs>
</svg>
