<svg width="28" height="28" viewBox="0 0 28 28" fill="none" xmlns="http://www.w3.org/2000/svg">
<path d="M9.33331 2.33331H5.83331C3.90032 2.33331 2.33331 3.90032 2.33331 5.83331V9.33331C2.33331 11.2663 3.90032 12.8333 5.83331 12.8333H9.33331C11.2663 12.8333 12.8333 11.2663 12.8333 9.33331V5.83331C12.8333 3.90032 11.2663 2.33331 9.33331 2.33331Z" fill="#6418C3"/>
<path d="M22.1666 2.33331H18.6666C16.7336 2.33331 15.1666 3.90032 15.1666 5.83331V9.33331C15.1666 11.2663 16.7336 12.8333 18.6666 12.8333H22.1666C24.0996 12.8333 25.6666 11.2663 25.6666 9.33331V5.83331C25.6666 3.90032 24.0996 2.33331 22.1666 2.33331Z" fill="#6418C3"/>
<path d="M9.33331 15.1666H5.83331C3.90032 15.1666 2.33331 16.7336 2.33331 18.6666V22.1666C2.33331 24.0996 3.90032 25.6666 5.83331 25.6666H9.33331C11.2663 25.6666 12.8333 24.0996 12.8333 22.1666V18.6666C12.8333 16.7336 11.2663 15.1666 9.33331 15.1666Z" fill="#6418C3"/>
<path d="M22.1666 15.1666H18.6666C16.7336 15.1666 15.1666 16.7336 15.1666 18.6666V22.1666C15.1666 24.0996 16.7336 25.6666 18.6666 25.6666H22.1666C24.0996 25.6666 25.6666 24.0996 25.6666 22.1666V18.6666C25.6666 16.7336 24.0996 15.1666 22.1666 15.1666Z" fill="#6418C3"/>
</svg>
