<svg width="28" height="28" viewBox="0 0 28 28" fill="none" xmlns="http://www.w3.org/2000/svg">
<g clip-path="url(#clip0_1_575)">
<path d="M2.54545 0C1.14629 0 0 1.14629 0 2.54545V19.0909C0 20.4901 1.14629 21.6364 2.54545 21.6364H4.0158C3.93001 21.1123 3.83758 20.538 3.8244 20.0368C3.8244 17.7169 5.15521 15.6365 7.17898 14.6314C6.67456 14.0256 6.36985 13.248 6.36985 12.4029C6.36985 10.4805 7.94412 8.90909 9.86736 8.90909C11.7906 8.90909 13.3636 10.4805 13.3636 12.4029C13.3636 13.2483 13.059 14.0255 12.5545 14.6314C14.5789 15.6362 15.9091 17.7165 15.9091 20.0368C15.8782 20.638 15.8279 21.0623 15.6879 21.6364H25.4545C26.8537 21.6364 28 20.4901 28 19.0909V2.54545C28 1.14629 26.8537 0 25.4545 0H2.54545ZM2.54545 1.27273H25.4545C26.1706 1.27273 26.7273 1.82936 26.7273 2.54545V5.09091H1.27273V2.54545C1.27273 1.82936 1.82936 1.27273 2.54545 1.27273ZM18.764 8.98864L24.4913 12.1705C24.9289 12.4127 24.9289 13.0419 24.4913 13.2841L18.764 16.4659C18.3396 16.7021 17.8177 16.3948 17.8182 15.9091V9.54545C17.8024 9.01539 18.3463 8.758 18.764 8.98864ZM9.86736 10.1818C8.63127 10.1818 7.64258 11.169 7.64258 12.4029C7.64258 13.6367 8.63127 14.6239 9.86736 14.6239C11.1035 14.6239 12.0909 13.6367 12.0909 12.4029C12.0909 11.169 11.1035 10.1818 9.86736 10.1818ZM8.32244 15.53C6.40019 16.1859 5.09712 17.9883 5.09712 20.0368C5.11137 20.55 5.22338 21.1035 5.30344 21.6364H14.3965C14.5443 21.0322 14.6073 20.5652 14.6364 20.0368C14.6364 17.9889 13.3342 16.1875 11.4123 15.5312C10.9453 15.7633 10.4219 15.8967 9.86736 15.8967C9.31266 15.8967 8.78969 15.7622 8.32244 15.53Z" fill="#464366"/>
<path d="M6.36364 22.9091C5.18515 22.9091 4.18799 23.7249 3.9027 24.8182H0V26.0909H3.9027C4.18799 27.1842 5.18515 28 6.36364 28C7.54248 28 8.54211 27.1847 8.82706 26.0909H28V24.8182H8.82706C8.54211 23.7244 7.54248 22.9091 6.36364 22.9091Z" fill="#464366"/>
<path d="M24.1818 2.54546V3.81818H25.4546V2.54546H24.1818Z" fill="#464366"/>
<path d="M21.6364 2.54546V3.81818H22.9091V2.54546H21.6364Z" fill="#464366"/>
<path d="M19.0909 2.54546V3.81818H20.3637V2.54546H19.0909Z" fill="#464366"/>
<path d="M16.5455 2.54546V3.81818H17.8182V2.54546H16.5455Z" fill="#464366"/>
</g>
<defs>
<clipPath id="clip0_1_575">
<rect width="28" height="28" fill="white"/>
</clipPath>
</defs>
</svg>
